<?xml version="1.0" standalone="no"?>
<!DOCTYPE svg PUBLIC "-//W3C//DTD SVG 20010904//EN"
 "http://www.w3.org/TR/2001/REC-SVG-20010904/DTD/svg10.dtd">
<svg version="1.0" xmlns="http://www.w3.org/2000/svg"
 width="512.000000pt" height="512.000000pt" viewBox="0 0 512.000000 512.000000"
 preserveAspectRatio="xMidYMid meet">

<g transform="translate(0.000000,512.000000) scale(0.100000,-0.100000)"
fill="#000000" stroke="none">
<path d="M3 5073 c3 -27 99 -1074 212 -2328 113 -1254 208 -2289 210 -2300 4
-18 102 -39 1070 -233 l1065 -213 1065 213 c968 194 1066 215 1070 233 2 11
97 1046 210 2300 113 1254 209 2301 212 2328 l6 47 -2563 0 -2563 0 6 -47z
m2345 -2480 c2 -1597 1 -1673 -16 -1673 -26 0 -1102 216 -1108 223 -5 5 -73
710 -74 760 0 16 17 17 213 17 l214 0 19 -212 19 -213 153 -31 152 -31 0 1419
0 1418 213 -2 212 -3 3 -1672z m1829 1595 c-3 -46 -11 -143 -18 -215 l-12
-133 -474 0 -473 0 0 -535 0 -535 425 0 c234 0 425 -1 425 -2 -17 -212 -150
-1621 -154 -1625 -6 -7 -1082 -223 -1108 -223 -17 0 -18 16 -18 213 l0 214
368 74 367 74 37 395 c20 217 37 410 37 428 l1 32 -405 0 -405 0 0 953 c0 525
3 957 7 960 3 4 321 7 706 7 l700 0 -6 -82z"/>
</g>
</svg>
